<?xml version="1.0" encoding="utf-8"?>
<!-- Generator: Adobe Illustrator 22.0.0, SVG Export Plug-In . SVG Version: 6.00 Build 0)  -->
<svg version="1.1" id="Layer_1" xmlns="http://www.w3.org/2000/svg" xmlns:xlink="http://www.w3.org/1999/xlink" x="0px" y="0px"
	 viewBox="0 0 1135.2 1507.1" style="enable-background:new 0 0 1135.2 1507.1;" xml:space="preserve">
<style type="text/css">
	.st0{fill:#FFFFFF;}
</style>
<path d="M569.3,0c0,0,565.9,18,565.9,518.4c-30.5,325.1-515,947.8-515,947.8s-44.1,92-108.4,0S0.6,689,0,493.8
	C-0.8,259,105,36.8,569.3,0z"/>
<path class="st0" d="M565.9,70.5c0,0-440.5,24.5-477.8,401.8c-40.7,162.6,430.3,877.2,481.2,935.5c0,0,410-585.8,471-825.1
	C1101.2,343.5,860.7,64.4,565.9,70.5z"/>
<ellipse cx="565.9" cy="506.1" rx="318.5" ry="288.3"/>
<ellipse class="st0" cx="565.9" cy="506.1" rx="230.4" ry="208.6"/>
</svg>
