<?xml version="1.0" encoding="utf-8"?>
<!-- Generator: Adobe Illustrator 22.0.0, SVG Export Plug-In . SVG Version: 6.00 Build 0)  -->
<svg version="1.1" id="Layer_1" xmlns="http://www.w3.org/2000/svg" xmlns:xlink="http://www.w3.org/1999/xlink" x="0px" y="0px"
	 viewBox="0 0 682.4 1769" style="enable-background:new 0 0 682.4 1769;" xml:space="preserve">
<style type="text/css">
	.st0{fill:#FFFFFF;}
</style>
<path d="M615.4,1463.1c0,168.9-136.9,305.9-305.9,305.9S3.6,1632.1,3.6,1463.1c0,0-39.2-188.2,141.2-282.3
	c0-172.5,0-1058.8,0-1058.8s164.7-274.5,313.7,0c7.8,62.7,7.8,109.8,7.8,109.8h188.2c0,0,62.7,39.2,0,78.4c-78.4,0-188.2,0-188.2,0
	l7.8,172.5h188.2c0,0,39.2,15.7,0,62.7c-78.4,7.8-196.1,7.8-196.1,7.8v172.5h196.1c0,0,39.2,15.7,0,62.7
	c-54.9,7.8-188.2,7.8-188.2,7.8v164.7h172.7c0,0,62.7,23.5,0,70.6c-102,7.8-172.5,7.8-172.5,7.8v133.3
	C474.2,1172.9,615.4,1282.7,615.4,1463.1z"/>
<path class="st0" d="M278.2,176.9c0,0,23.5-78.4,62.7,0c0,117.6,0,964.7,0,964.7h-62.7V176.9z"/>
</svg>
