<?xml version="1.0" encoding="utf-8"?>
<!-- Generator: Adobe Illustrator 22.0.0, SVG Export Plug-In . SVG Version: 6.00 Build 0)  -->
<svg version="1.1" id="Layer_1" xmlns="http://www.w3.org/2000/svg" xmlns:xlink="http://www.w3.org/1999/xlink" x="0px" y="0px"
	 viewBox="0 0 1397 1012.8" style="enable-background:new 0 0 1397 1012.8;" xml:space="preserve">
<circle cx="696.5" cy="895" r="117.8"/>
<path d="M539.5,724.8c0,0,170.1-144,301,0c91.6,104.7,222.5-52.3,65.4-130.9S618,502.4,474,607.1S500.2,790.3,539.5,724.8z"/>
<path d="M330.1,554.7c0,0,340.3-327.2,719.8-13.1c91.6,91.6,209.4-13.1,52.3-130.9s-418.8-287.9-850.7,26.2
	C159.9,502.4,251.6,620.1,330.1,554.7z"/>
<path d="M146.9,358.4c0,0,445-497.3,1112.4,0c130.9,117.8,183.2-39.3,91.6-104.7s-693.6-536.6-1295.7,0
	C-75.6,345.3,55.2,463.1,146.9,358.4z"/>
</svg>
